<svg width="16" height="16" viewBox="0 0 16 16" fill="none" xmlns="http://www.w3.org/2000/svg">
<path d="M2.66669 2.66683V13.3335C2.66669 13.6871 2.80716 14.0263 3.05721 14.2763C3.30726 14.5264 3.6464 14.6668 4.00002 14.6668H12C12.3536 14.6668 12.6928 14.5264 12.9428 14.2763C13.1929 14.0263 13.3334 13.6871 13.3334 13.3335V5.5615C13.3333 5.38387 13.2978 5.20804 13.2289 5.04433C13.16 4.88061 13.059 4.73232 12.932 4.60816L9.97202 1.7135C9.72293 1.46993 9.3884 1.33354 9.04002 1.3335H4.00002C3.6464 1.3335 3.30726 1.47397 3.05721 1.72402C2.80716 1.97407 2.66669 2.31321 2.66669 2.66683Z" stroke="black" stroke-opacity="0.42" stroke-linecap="round" stroke-linejoin="round"/>
<path d="M9.33337 1.3335V4.00016C9.33337 4.35378 9.47385 4.69292 9.7239 4.94297C9.97395 5.19302 10.3131 5.3335 10.6667 5.3335H13.3334" stroke="black" stroke-opacity="0.42" stroke-linejoin="round"/>
</svg>
