<svg width="16" height="16" viewBox="0 0 16 16" fill="none" xmlns="http://www.w3.org/2000/svg">
<path fill-rule="evenodd" clip-rule="evenodd" d="M12.5 12.618C12.807 12.343 13 11.944 13 11.5V6.97695C13.0001 6.7472 12.9473 6.5205 12.8459 6.31435C12.7445 6.1082 12.5971 5.9281 12.415 5.78795L8.915 3.09595C8.65271 2.89404 8.331 2.78455 8 2.78455C7.669 2.78455 7.34729 2.89404 7.085 3.09595L3.585 5.78795C3.40281 5.9282 3.2553 6.10846 3.15386 6.3148C3.05243 6.52114 2.99979 6.74803 3 6.97795V11.5C2.99947 11.6965 3.03768 11.8912 3.11244 12.073C3.1872 12.2548 3.29704 12.42 3.43569 12.5593C3.57434 12.6986 3.73908 12.8092 3.9205 12.8848C4.10192 12.9604 4.29646 12.9996 4.493 13H5V9.49995C5 8.96952 5.21071 8.46081 5.58579 8.08574C5.96086 7.71067 6.46957 7.49995 7 7.49995H9C9.53043 7.49995 10.0391 7.71067 10.4142 8.08574C10.7893 8.46081 11 8.96952 11 9.49995V13H11.507C11.888 12.998 12.237 12.854 12.5 12.618ZM14.5 11.5C14.5 12.2956 14.1839 13.0587 13.6213 13.6213C13.0587 14.1839 12.2956 14.5 11.5 14.5H4.5C3.70435 14.5 2.94129 14.1839 2.37868 13.6213C1.81607 13.0587 1.5 12.2956 1.5 11.5V6.97695C1.50003 6.51761 1.60554 6.06442 1.80839 5.6523C2.01124 5.24018 2.30602 4.88015 2.67 4.59995L6.17 1.90795C6.69458 1.50413 7.33799 1.28516 8 1.28516C8.66201 1.28516 9.30542 1.50413 9.83 1.90795L13.33 4.59995C13.6941 4.88025 13.989 5.24045 14.1918 5.65275C14.3947 6.06505 14.5001 6.51845 14.5 6.97795V11.5ZM9.5 9.49995C9.5 9.36734 9.44732 9.24017 9.35355 9.1464C9.25979 9.05263 9.13261 8.99995 9 8.99995H7C6.86739 8.99995 6.74021 9.05263 6.64645 9.1464C6.55268 9.24017 6.5 9.36734 6.5 9.49995V13H9.5V9.49995Z" fill="black" fill-opacity="0.42"/>
</svg>
