<svg width="18" height="18" viewBox="0 0 18 18" fill="none" xmlns="http://www.w3.org/2000/svg">
<path d="M15 9.75V4.31175C15 4.25255 14.9884 4.19392 14.9658 4.13922C14.9431 4.08453 14.9099 4.03484 14.868 3.993L12.507 1.632C12.4227 1.54758 12.3083 1.50011 12.189 1.5H3.45C3.33065 1.5 3.21619 1.54741 3.1318 1.6318C3.04741 1.71619 3 1.83065 3 1.95V16.05C3 16.1693 3.04741 16.2838 3.1318 16.3682C3.21619 16.4526 3.33065 16.5 3.45 16.5H10.5" stroke="black" stroke-opacity="0.42" stroke-linecap="round" stroke-linejoin="round"/>
<path d="M12 1.5V4.05C12 4.16935 12.0474 4.28381 12.1318 4.3682C12.2162 4.45259 12.3307 4.5 12.45 4.5H15M12 14.25H16.5M16.5 14.25L14.25 12M16.5 14.25L14.25 16.5" stroke="black" stroke-opacity="0.42" stroke-linecap="round" stroke-linejoin="round"/>
</svg>
