<svg width="16" height="16" viewBox="0 0 16 16" fill="none" xmlns="http://www.w3.org/2000/svg">
<path d="M6 2H2.66667C2.48986 2 2.32029 2.07024 2.19526 2.19526C2.07024 2.32029 2 2.48986 2 2.66667V6C2 6.17681 2.07024 6.34638 2.19526 6.4714C2.32029 6.59643 2.48986 6.66667 2.66667 6.66667H6C6.17681 6.66667 6.34638 6.59643 6.4714 6.4714C6.59643 6.34638 6.66667 6.17681 6.66667 6V2.66667C6.66667 2.48986 6.59643 2.32029 6.4714 2.19526C6.34638 2.07024 6.17681 2 6 2ZM6 9.33333H2.66667C2.48986 9.33333 2.32029 9.40357 2.19526 9.5286C2.07024 9.65362 2 9.82319 2 10V13.3333C2 13.5101 2.07024 13.6797 2.19526 13.8047C2.32029 13.9298 2.48986 14 2.66667 14H6C6.17681 14 6.34638 13.9298 6.4714 13.8047C6.59643 13.6797 6.66667 13.5101 6.66667 13.3333V10C6.66667 9.82319 6.59643 9.65362 6.4714 9.5286C6.34638 9.40357 6.17681 9.33333 6 9.33333ZM11.6667 6.66667C11.9731 6.66667 12.2765 6.60631 12.5596 6.48905C12.8427 6.37179 13.0999 6.19992 13.3166 5.98325C13.5333 5.76658 13.7051 5.50935 13.8224 5.22626C13.9396 4.94317 14 4.63975 14 4.33333C14 4.02692 13.9396 3.7235 13.8224 3.44041C13.7051 3.15731 13.5333 2.90009 13.3166 2.68342C13.0999 2.46675 12.8427 2.29488 12.5596 2.17761C12.2765 2.06035 11.9731 2 11.6667 2C11.0478 2 10.4543 2.24583 10.0168 2.68342C9.57917 3.121 9.33333 3.71449 9.33333 4.33333C9.33333 4.95217 9.57917 5.54566 10.0168 5.98325C10.4543 6.42083 11.0478 6.66667 11.6667 6.66667ZM13.3333 9.33333H10C9.82319 9.33333 9.65362 9.40357 9.5286 9.5286C9.40357 9.65362 9.33333 9.82319 9.33333 10V13.3333C9.33333 13.5101 9.40357 13.6797 9.5286 13.8047C9.65362 13.9298 9.82319 14 10 14H13.3333C13.5101 14 13.6797 13.9298 13.8047 13.8047C13.9298 13.6797 14 13.5101 14 13.3333V10C14 9.82319 13.9298 9.65362 13.8047 9.5286C13.6797 9.40357 13.5101 9.33333 13.3333 9.33333Z" stroke="black" stroke-opacity="0.42" stroke-linejoin="round"/>
</svg>
