<svg width="18" height="18" viewBox="0 0 18 18" fill="none" xmlns="http://www.w3.org/2000/svg">
<path fill-rule="evenodd" clip-rule="evenodd" d="M14.85 7.63501C14.6175 5.25001 13.2075 1.5 8.85003 1.5C4.49252 1.5 3.08251 5.25001 2.85002 7.63501C2.03439 7.94456 1.4964 8.72763 1.50002 9.6V10.65C1.50002 11.8098 2.44024 12.75 3.60001 12.75C4.75981 12.75 5.70003 11.8098 5.70003 10.65V9.6C5.69623 8.74644 5.17803 7.97947 4.38751 7.65751C4.53752 6.27749 5.27253 3.00001 8.85003 3.00001C12.4275 3.00001 13.155 6.27749 13.305 7.65751C12.5161 7.98018 12.0005 8.74767 12 9.6V10.65C12.0016 11.0452 12.1143 11.4319 12.3252 11.7661C12.536 12.1003 12.8366 12.3684 13.1925 12.54C12.8775 13.1325 12.075 13.935 10.1025 14.175C9.70823 13.5763 8.94537 13.3402 8.28183 13.6117C7.61833 13.8831 7.23959 14.5861 7.37797 15.2895C7.51634 15.9929 8.13312 16.5 8.85003 16.5C9.12781 16.4985 9.39971 16.4198 9.63542 16.2728C9.87113 16.1258 10.0614 15.9163 10.185 15.6675C13.4025 15.3 14.43 13.6425 14.7525 12.6675C15.625 12.3849 16.2118 11.5671 16.2 10.65V9.6C16.2036 8.72763 15.6656 7.94456 14.85 7.63501ZM4.20002 10.65C4.20002 10.9814 3.93139 11.25 3.60001 11.25C3.26862 11.25 3.00003 10.9814 3.00003 10.65V9.6C2.99942 9.52082 3.0145 9.44231 3.04438 9.36898C3.07426 9.29565 3.11836 9.22897 3.17413 9.17276C3.22991 9.11656 3.29625 9.07195 3.36935 9.04151C3.44244 9.01107 3.52084 8.9954 3.60002 8.9954C3.67921 8.9954 3.7576 9.01107 3.8307 9.04151C3.90379 9.07195 3.97014 9.11656 4.02592 9.17276C4.08169 9.22897 4.12579 9.29565 4.15567 9.36898C4.18555 9.44231 4.20062 9.52082 4.20002 9.6V10.65ZM13.5 9.6C13.5 9.26862 13.7686 8.99999 14.1 8.99999C14.4314 8.99999 14.7 9.26862 14.7 9.6V10.65C14.7 10.9814 14.4314 11.25 14.1 11.25C13.7686 11.25 13.5 10.9814 13.5 10.65V9.6Z" fill="black" fill-opacity="0.42"/>
</svg>
