<svg width="16" height="16" viewBox="0 0 16 16" fill="none" xmlns="http://www.w3.org/2000/svg">
<path d="M13.3334 12.6668V7.00016C13.3334 6.89667 13.3093 6.79459 13.263 6.70202C13.2167 6.60945 13.1495 6.52893 13.0667 6.46683L8.40002 2.96683C8.28462 2.88028 8.14427 2.8335 8.00002 2.8335C7.85577 2.8335 7.71542 2.88028 7.60002 2.96683L2.93335 6.46683C2.85056 6.52893 2.78335 6.60945 2.73707 6.70202C2.69078 6.79459 2.66669 6.89667 2.66669 7.00016V12.6668C2.66669 12.8436 2.73693 13.0132 2.86195 13.1382C2.98697 13.2633 3.15654 13.3335 3.33335 13.3335H6.00002C6.17683 13.3335 6.3464 13.2633 6.47142 13.1382C6.59645 13.0132 6.66669 12.8436 6.66669 12.6668V10.6668C6.66669 10.49 6.73692 10.3204 6.86195 10.1954C6.98697 10.0704 7.15654 10.0002 7.33335 10.0002H8.66669C8.8435 10.0002 9.01307 10.0704 9.13809 10.1954C9.26312 10.3204 9.33335 10.49 9.33335 10.6668V12.6668C9.33335 12.8436 9.40359 13.0132 9.52862 13.1382C9.65364 13.2633 9.82321 13.3335 10 13.3335H12.6667C12.8435 13.3335 13.0131 13.2633 13.1381 13.1382C13.2631 13.0132 13.3334 12.8436 13.3334 12.6668Z" stroke="black" stroke-opacity="0.42" stroke-linecap="round" stroke-linejoin="round"/>
</svg>
