<svg width="16" height="16" viewBox="0 0 16 16" fill="none" xmlns="http://www.w3.org/2000/svg">
<path fill-rule="evenodd" clip-rule="evenodd" d="M12.6667 3.16061V5.33328C12.9293 5.33328 13.1894 5.38501 13.432 5.48552C13.6747 5.58603 13.8952 5.73335 14.0809 5.91906C14.2666 6.10478 14.4139 6.32526 14.5144 6.56791C14.6149 6.81056 14.6667 7.07063 14.6667 7.33328C14.6667 7.59592 14.6149 7.85599 14.5144 8.09865C14.4139 8.3413 14.2666 8.56177 14.0809 8.74749C13.8952 8.93321 13.6747 9.08053 13.432 9.18104C13.1894 9.28155 12.9293 9.33328 12.6667 9.33328V11.3333C12.6667 12.4319 11.4127 13.0593 10.5333 12.3999L9.15999 11.3693C8.42587 10.8189 7.57115 10.4514 6.66666 10.2973V12.1933C6.66673 12.6291 6.50926 13.0503 6.22326 13.3791C5.93726 13.708 5.54203 13.9224 5.11041 13.9828C4.67878 14.0432 4.23987 13.9456 3.87458 13.7078C3.50929 13.4701 3.24224 13.1084 3.12266 12.6893L2.07599 9.02528C1.69934 8.58047 1.45422 8.03942 1.36819 7.46295C1.28215 6.88648 1.35862 6.29744 1.58898 5.76204C1.81935 5.22664 2.19449 4.76611 2.67223 4.43221C3.14997 4.09831 3.71137 3.90429 4.29333 3.87194L6.30533 3.75994C7.28976 3.70526 8.24713 3.4176 9.09866 2.92061L10.6613 2.00861C11.5507 1.49061 12.6667 2.13128 12.6667 3.16061ZM3.75599 10.0519L4.40466 12.3233C4.43588 12.4332 4.50582 12.5282 4.60158 12.5906C4.69733 12.653 4.81243 12.6786 4.92561 12.6628C5.0388 12.6469 5.14243 12.5906 5.21737 12.5044C5.29231 12.4181 5.3335 12.3076 5.33333 12.1933V10.1866L4.29333 10.1286C4.11243 10.1177 3.93272 10.0921 3.75599 10.0519ZM11.3333 3.16061L9.76999 4.07328C8.82062 4.62775 7.76139 4.96771 6.66666 5.06928V8.94861C7.85799 9.11261 8.99199 9.57728 9.95999 10.3026L11.3333 11.3333V3.16061ZM5.33333 5.14928L4.36666 5.20261C3.91696 5.22744 3.4929 5.41996 3.1782 5.74216C2.86351 6.06436 2.68103 6.49283 2.6668 6.94299C2.65256 7.39316 2.80761 7.8323 3.10133 8.17373C3.39505 8.51517 3.80609 8.73409 4.25333 8.78728L4.36666 8.79728L5.33333 8.85061V5.14928ZM12.6667 6.66661V7.99994C12.8366 7.99976 13 7.93469 13.1236 7.81805C13.2471 7.7014 13.3215 7.54198 13.3314 7.37235C13.3414 7.20272 13.2862 7.03569 13.1772 6.90539C13.0681 6.77509 12.9134 6.69135 12.7447 6.67128L12.6667 6.66661Z" fill="black" fill-opacity="0.42"/>
</svg>
