<svg width="16" height="16" viewBox="0 0 16 16" fill="none" xmlns="http://www.w3.org/2000/svg">
<path d="M14.6666 7.99984C14.6666 5.48584 14.6666 4.2285 13.8853 3.44784C13.104 2.66717 11.8473 2.6665 9.33331 2.6665H6.66665C4.15265 2.6665 2.89531 2.6665 2.11465 3.44784C1.33398 4.22917 1.33331 5.48584 1.33331 7.99984C1.33331 10.5138 1.33331 11.7712 2.11465 12.5518C2.89598 13.3325 4.15265 13.3332 6.66665 13.3332H9.33331C11.8473 13.3332 13.1046 13.3332 13.8853 12.5518C14.3213 12.1165 14.514 11.5332 14.5986 10.6665M6.66665 10.6665H3.99998M9.33331 10.6665H8.33331M1.33331 6.6665H4.66665M14.6666 6.6665H7.33331" stroke="black" stroke-opacity="0.42" stroke-linecap="round"/>
</svg>
